/* XPM */
static char * lt_crv_on_xpm[] = {
"5 21 89 1",
" 	c None",
".	c #40509D",
"+	c #5575B4",
"@	c #8AAFD6",
"#	c #426EB4",
"$	c #8AB5DA",
"%	c #C2D9EC",
"&	c #598CC7",
"*	c #5591CA",
"=	c #9EC5E2",
"-	c #B0D0E8",
";	c #8BB6DD",
">	c #3079C3",
",	c #4D99D3",
"'	c #90BCDD",
")	c #9AC3E1",
"!	c #6498CD",
"~	c #338AD1",
"{	c #4A99D5",
"]	c #79B0D9",
"^	c #82B5DA",
"/	c #3C81C5",
"(	c #308ED5",
"_	c #3E97D6",
":	c #5BA2D4",
"<	c #6BA9D2",
"[	c #3B7FC4",
"}	c #3192D9",
"|	c #3896D8",
"1	c #429AD7",
"2	c #53A1D6",
"3	c #4285C7",
"4	c #3394DA",
"5	c #3497DA",
"6	c #3498DB",
"7	c #3E9DDA",
"8	c #4087C8",
"9	c #3296DA",
"0	c #3398D8",
"a	c #3498D8",
"b	c #359ADB",
"c	c #3C86C9",
"d	c #3698DA",
"e	c #3699DA",
"f	c #3598D6",
"g	c #3D86C9",
"h	c #3798DA",
"i	c #369BDA",
"j	c #3698D6",
"k	c #3899D5",
"l	c #3D84C6",
"m	c #3899DA",
"n	c #369CDA",
"o	c #3899D6",
"p	c #3B9BD6",
"q	c #3C80C3",
"r	c #3393D7",
"s	c #3799D8",
"t	c #3D9CD6",
"u	c #419DD7",
"v	c #4C86C1",
"w	c #338ACD",
"x	c #3796D5",
"y	c #429CD6",
"z	c #4DA3D9",
"A	c #6D97BD",
"B	c #3386C7",
"C	c #3893D4",
"D	c #4A9FD7",
"E	c #5AA9DB",
"F	c #9EBCD4",
"G	c #3B76B1",
"H	c #3691D3",
"I	c #54A4DA",
"J	c #68B2E0",
"K	c #D1DFE8",
"L	c #698DAC",
"M	c #3484CA",
"N	c #5AA8DB",
"O	c #76BBE2",
"P	c #99B1C4",
"Q	c #3F76B4",
"R	c #5EA5DB",
"S	c #7DC4E8",
"T	c #809EB5",
"U	c #6D99C6",
"V	c #82C3E5",
"W	c #7895B1",
"X	c #364D98",
"    .",
"   +@",
"  #$%",
" &*=-",
";>,')",
"!~{]^",
"/(_:<",
"[}|12",
"34567",
"890ab",
"cdeff",
"ghijk",
"lmnop",
"qrstu",
"vwxyz",
"ABCDE",
"FGHIJ",
"KLMNO",
" PQRS",
"  TUV",
"   WX"};
