/* XPM */
static char * rt_crv_on_xpm[] = {
"5 21 89 1",
" 	c None",
".	c #40509D",
"+	c #8AAFD6",
"@	c #5575B4",
"#	c #C2D9EC",
"$	c #8AB5DA",
"%	c #426EB4",
"&	c #B0D0E8",
"*	c #9EC5E2",
"=	c #5591CA",
"-	c #598CC7",
";	c #9AC3E1",
">	c #90BCDD",
",	c #4D99D3",
"'	c #3079C3",
")	c #8BB6DD",
"!	c #82B5DA",
"~	c #79B0D9",
"{	c #4A99D5",
"]	c #338AD1",
"^	c #6498CD",
"/	c #6BA9D2",
"(	c #5BA2D4",
"_	c #3E97D6",
":	c #308ED5",
"<	c #3C81C5",
"[	c #53A1D6",
"}	c #429AD7",
"|	c #3896D8",
"1	c #3192D9",
"2	c #3B7FC4",
"3	c #3E9DDA",
"4	c #3498DB",
"5	c #3497DA",
"6	c #3394DA",
"7	c #4285C7",
"8	c #359ADB",
"9	c #3498D8",
"0	c #3398D8",
"a	c #3296DA",
"b	c #4087C8",
"c	c #3598D6",
"d	c #3699DA",
"e	c #3698DA",
"f	c #3C86C9",
"g	c #3899D5",
"h	c #3698D6",
"i	c #369BDA",
"j	c #3798DA",
"k	c #3D86C9",
"l	c #3B9BD6",
"m	c #3899D6",
"n	c #369CDA",
"o	c #3899DA",
"p	c #3D84C6",
"q	c #419DD7",
"r	c #3D9CD6",
"s	c #3799D8",
"t	c #3393D7",
"u	c #3C80C3",
"v	c #4DA3D9",
"w	c #429CD6",
"x	c #3796D5",
"y	c #338ACD",
"z	c #4C86C1",
"A	c #5AA9DB",
"B	c #4A9FD7",
"C	c #3893D4",
"D	c #3386C7",
"E	c #6D97BD",
"F	c #68B2E0",
"G	c #54A4DA",
"H	c #3691D3",
"I	c #3B76B1",
"J	c #9EBCD4",
"K	c #76BBE2",
"L	c #5AA8DB",
"M	c #3484CA",
"N	c #698DAC",
"O	c #D1DFE8",
"P	c #7DC4E8",
"Q	c #5EA5DB",
"R	c #3F76B4",
"S	c #99B1C4",
"T	c #82C3E5",
"U	c #6D99C6",
"V	c #809EB5",
"W	c #364D98",
"X	c #7895B1",
".    ",
"+@   ",
"#$%  ",
"&*=- ",
";>,')",
"!~{]^",
"/(_:<",
"[}|12",
"34567",
"890ab",
"ccdef",
"ghijk",
"lmnop",
"qrstu",
"vwxyz",
"ABCDE",
"FGHIJ",
"KLMNO",
"PQRS ",
"TUV  ",
"WX   "};
